HIERARCHY
ROOT Hips
{
  OFFSET -185.693 86.1554 -105.181
  CHANNELS 6 Xposition Yposition Zposition Zrotation Xrotation Yrotation
  JOINT RightUpLeg
  {
    OFFSET -8.9458 -8.66707 0.101652
    CHANNELS 3 Zrotation Xrotation Yrotation
    JOINT RightLeg
    {
      OFFSET 0 -44.4227 1.3727
      CHANNELS 3 Zrotation Xrotation Yrotation
      JOINT RightFoot
      {
        OFFSET 0.253549 -42.0924 -1.46059
        CHANNELS 3 Zrotation Xrotation Yrotation
        JOINT RightToes
        {
          OFFSET 0.04 -4.41509 8.4991
          CHANNELS 3 Zrotation Xrotation Yrotation
          End Site
          {
            OFFSET -0.08 -0.137448 9.77979
          }
        }
      }
    }
  }
  JOINT Spine
  {
    OFFSET 0 11.8905 0
    CHANNELS 3 Zrotation Xrotation Yrotation
    JOINT Spine1
    {
      OFFSET 0 25.6574 0.127663
      CHANNELS 3 Zrotation Xrotation Yrotation
      JOINT HEad
      {
        OFFSET 0 8.73416 0.011341
        CHANNELS 3 Zrotation Xrotation Yrotation
        End Site
        {
          OFFSET -0.29 12.7742 2.51395
        }
      }
      JOINT LeftShoulder1
      {
        OFFSET 8.99 -0.362252 -0.22
        CHANNELS 3 Zrotation Xrotation Yrotation
        JOINT LeftArm
        {
          OFFSET 10.2827 -0.00338 0.322123
          CHANNELS 3 Zrotation Xrotation Yrotation
          JOINT LeftForeArm
          {
            OFFSET 32.7669 0.099144 -1.42434
            CHANNELS 3 Zrotation Xrotation Yrotation
            JOINT LeftHand
            {
              OFFSET 27.5643 0.085362 1.02216
              CHANNELS 3 Zrotation Xrotation Yrotation
              End Site
              {
                OFFSET 16.7443 -0.6 1.50291
              }
            }
          }
        }
      }
      JOINT RightShoulder
      {
        OFFSET -8.99 -0.362252 -0.22
        CHANNELS 3 Zrotation Xrotation Yrotation
        JOINT RightArm
        {
          OFFSET -10.2827 -0.00338 0.322123
          CHANNELS 3 Zrotation Xrotation Yrotation
          JOINT RightForeArm
          {
            OFFSET -32.8971 0.099144 -1.42434
            CHANNELS 3 Zrotation Xrotation Yrotation
            JOINT RightHand
            {
              OFFSET -27.4921 0.085362 1.02216
              CHANNELS 3 Zrotation Xrotation Yrotation
              End Site
              {
                OFFSET -16.6312 -0.6 1.50291
              }
            }
          }
        }
      }
    }
  }
  JOINT LeftUpLeg
  {
    OFFSET 8.9458 -8.66707 0.101652
    CHANNELS 3 Zrotation Xrotation Yrotation
    JOINT LeftLeg
    {
      OFFSET 0 -44.4227 1.3727
      CHANNELS 3 Zrotation Xrotation Yrotation
      JOINT LeftFoot
      {
        OFFSET -0.253549 -42.0924 -1.46059
        CHANNELS 3 Zrotation Xrotation Yrotation
        JOINT LeftToes
        {
          OFFSET -0.04 -4.41509 8.4991
          CHANNELS 3 Zrotation Xrotation Yrotation
          End Site
          {
            OFFSET 0.08 -0.047448 9.77979
          }
        }
      }
    }
  }
}
MOTION
Frames:	22
Frame Time:	0.0166667
-145.492 84.5435 -125.243 -4.45294 -18.1144 0.166485 -16.1928 -4.41464 6.13218 15.0955 61.2623 -9.98639 20.712 25.0459 -5.91053 -57.4588 -42.69 -18.4212 5.66123 19.6481 4.252 5.55308 40.1133 8.9813 2.6905 -23.5259 12.9198 -1.76556e-031 -6.36111e-015 -1.59028e-015 -63.7407 -32.2515 -37.6379 -41.0002 38.208 -83.0835 0.500364 9.96765 -31.2751 24.8072 6.52586 21.9027 69.3776 -35.139 67.2755 33.4021 56.2929 88.3911 -8.6423 11.5717 -28.5504 24.5826 -15.895 -4.89518 -1.06262 29.5091 -12.2168 -21.0013 3.71074 2.06429 -4.94831 -17.5801 -2.86104 
-144.953 83.9463 -125.397 -5.78422 -18.6144 -2.75133 -17.7209 -9.34252 6.08056 11.5245 59.7022 -6.59705 19.0024 22.8414 -5.05348 -51.4598 -40.0199 -15.746 6.39623 20.6655 3.49148 7.79363 42.0701 6.83825 1.27221 -24.2786 17.7852 7.95139e-016 -3.18055e-015 -3.18055e-015 -60.9833 -33.9589 -32.3866 -43.0728 38.582 -83.5403 -0.353902 10.2639 -33.8227 26.6769 6.5155 20.4385 63.4338 -33.2945 63.3431 25.4523 54.3352 101.285 -6.05876 11.283 -33.8754 25.856 -15.8467 -5.01229 -1.5669 32.3884 -9.76641 -20.8516 4.39814 2.17017 -6.01421 -20.191 -5.20868 
-144.463 83.2539 -125.398 -6.85385 -18.8136 -5.99731 -19.0604 -14.0347 5.99473 7.65528 56.5968 -0.827698 20.0974 20.4075 -4.93489 -44.3981 -36.8578 -11.1062 6.5257 21.5097 2.95595 9.39183 43.6316 5.06932 0.592659 -24.2886 22.3672 -1.19271e-015 3.18055e-015 -1.19271e-015 -59.1484 -36.7521 -27.0967 -42.107 39.9133 -85.2396 1.02403 9.79356 -34.2864 27.3715 6.26556 19.113 59.0134 -30.6046 61.6339 19.4149 52.0728 111.777 -3.30203 10.7165 -40.0689 26.9585 -15.7269 -4.6452 -2.04677 35.2462 -7.2762 -20.6068 5.34959 2.30924 -7.4136 -23.1854 -7.96002 
-144.308 82.3962 -125.147 -7.5447 -18.7291 -9.15537 -20.0874 -18.0014 5.56027 3.52825 51.9232 6.33264 24.7488 19.8011 -5.9801 -40.1595 -35.0188 -6.58811 5.73365 22.1092 2.67232 10.2886 44.7039 3.69106 0.697906 -23.4064 26.3151 1.78906e-015 3.18055e-015 9.93923e-016 -57.796 -40.2549 -21.997 -39.1561 41.2953 -87.1359 3.40003 8.99881 -33.2665 27.5092 5.98457 18.0845 55.7351 -27.4964 61.5041 15.3654 49.7654 119.417 -0.584198 9.84566 -45.971 28.0874 -15.6698 -4.03354 -2.80613 38.0676 -4.80278 -20.4117 6.25766 2.44287 -9.06053 -26.232 -10.9015 
-144.698 81.4027 -124.532 -7.79985 -18.561 -11.771 -20.7724 -20.614 4.93476 -0.0895748 46.0141 13.1589 32.0906 21.5725 -8.32961 -39.5263 -35.3308 -3.19171 4.02571 22.3467 2.56623 10.6346 45.2258 2.55571 1.29908 -21.7802 29.2879 -2.38542e-015 -3.18055e-015 1.59028e-015 -56.5317 -43.3575 -17.1605 -35.822 42.023 -87.9046 5.50827 8.35966 -31.7238 27.5779 5.79722 17.4162 52.9941 -24.3 62.0883 12.9277 47.5927 124.287 1.87673 8.7986 -50.6871 29.337 -15.5477 -3.51963 -4.10873 40.6594 -2.43983 -20.3579 6.80819 2.53068 -10.7374 -28.9114 -13.7083 
-145.615 80.3671 -123.542 -7.86075 -18.5409 -13.5089 -21.0017 -21.5076 5.02046 -2.22372 40.0742 17.8402 39.5577 23.9947 -11.2579 -40.1723 -36.2946 -1.26665 2.45815 22.2226 2.31113 10.8582 45.2253 1.37521 2.0691 -19.7688 31.1714 1.59028e-015 1.27222e-014 -0 -55.3705 -44.9759 -12.8239 -33.6826 41.8578 -86.4246 6.63796 8.05579 -30.6467 27.8373 5.74528 17.0868 50.2905 -21.1919 62.6744 11.5658 45.6512 126.915 3.95392 7.75585 -54.0131 30.7757 -15.2371 -3.33229 -5.82011 42.8796 -0.572212 -20.4703 6.73689 2.53295 -12.1307 -30.8674 -15.9563 
-146.972 79.4855 -122.331 -7.72689 -18.8807 -14.1322 -20.9613 -20.8747 6.78899 -2.5855 35.901 19.2217 43.4128 24.9435 -12.8249 -39.3257 -35.7466 -0.758107 1.58354 21.9481 1.78876 11.211 44.8372 -0.124454 2.85072 -17.7276 32.1457 1.59028e-015 6.36111e-015 -0 -54.5286 -44.7003 -9.31026 -33.693 40.7464 -82.3573 6.52473 8.09193 -30.6334 28.4134 5.82512 17.0083 47.296 -18.1771 62.7752 10.6849 43.8347 128.126 5.67678 6.81394 -56.1921 32.0463 -14.5183 -3.48678 -7.28947 44.2 0.22654 -20.7425 6.30809 2.49298 -13.0421 -32.0352 -17.3928 
-148.704 78.8687 -121.063 -7.30811 -19.677 -13.5099 -20.8395 -19.1387 10.1593 -1.55526 34.6114 17.3041 41.6161 23.5315 -11.7206 -36.2335 -33.1161 -1.48828 1.56784 21.6839 1.00689 11.6848 44.1848 -1.97616 3.60245 -15.9415 32.5242 1.76556e-031 -3.18055e-015 3.18055e-015 -54.041 -42.7976 -6.70932 -35.8454 38.5623 -76.3921 5.08247 8.49364 -31.8021 29.3302 6.00118 17.042 43.9273 -15.1513 62.1061 9.75533 41.8846 128.768 7.12996 6.00101 -57.4541 32.7977 -13.4007 -3.87674 -7.75132 44.3732 -0.580622 -21.0941 5.92032 2.46793 -13.4947 -32.6182 -18.0367 
-150.809 78.4725 -119.786 -6.47497 -20.86 -11.6414 -20.729 -16.586 13.7011 0.14569 35.8314 13.4182 35.7003 19.8629 -8.78576 -32.2043 -29.5952 -3.30594 2.1841 21.4343 0.061582 12.0434 43.3381 -3.92105 4.27295 -14.7149 32.5896 -1.59028e-015 -3.18055e-015 1.59028e-015 -53.7664 -39.8778 -4.82043 -39.1456 35.318 -70.0891 2.43164 9.31531 -33.8087 30.4601 6.20898 17.0496 40.4086 -12.0412 60.6064 8.56319 39.664 129.461 8.3371 5.34872 -57.9342 32.8959 -12.099 -4.4492 -6.94651 43.5484 -3.01873 -21.3361 5.73749 2.46448 -13.5889 -32.8698 -17.9265 
-153.25 78.2347 -118.497 -5.20564 -22.1615 -8.72644 -20.7078 -13.5286 15.6657 1.7702 38.2687 9.39053 28.9042 15.228 -5.88044 -29.3666 -27.0746 -5.773 3.03357 21.1179 -0.880827 12.0544 42.3482 -5.54902 4.74732 -14.3807 32.5249 -1.59028e-015 -3.18055e-015 1.59028e-015 -53.6411 -36.6679 -3.37573 -42.1898 31.6545 -65.1558 -0.812567 10.4508 -35.903 31.5577 6.37884 16.9584 37.1131 -8.90567 58.408 7.24675 37.2808 130.535 9.24308 4.90504 -57.7856 32.4509 -10.868 -5.29632 -5.25538 41.9287 -6.36539 -21.1697 5.80483 2.45648 -13.3984 -32.9686 -17.036 
-155.881 78.1963 -117.24 -3.71581 -23.2199 -5.18561 -20.8581 -10.5371 15.5144 3.22295 40.7294 6.12868 23.586 11.8245 -4.08878 -29.3729 -26.8381 -8.21853 3.85734 20.6818 -1.63065 11.6975 41.2753 -6.51332 4.84223 -15.1317 32.3677 -7.95139e-016 0 1.59028e-015 -53.7666 -33.8602 -2.24976 -44.0882 28.7222 -62.5189 -3.59348 11.5147 -37.4113 32.4065 6.46621 16.7622 34.2207 -5.91221 55.7017 6.05793 34.9439 132.137 9.71951 4.73903 -57.1242 31.7035 -9.87604 -6.53673 -3.25024 39.6171 -9.47837 -20.3168 6.2446 2.42879 -12.9661 -32.9435 -15.4557 
-158.546 78.4969 -116.098 -2.28286 -23.7676 -1.49116 -21.2768 -8.11972 14.1533 5.27643 42.3938 3.02742 20.696 11.2672 -3.48531 -32.693 -29.0022 -10.259 4.39467 20.1348 -1.99366 11.124 40.1414 -6.67323 4.36276 -16.7881 32.0115 -1.59028e-015 3.18055e-015 -3.18055e-015 -54.2742 -31.9176 -1.50801 -44.7315 27.3441 -62.12 -5.05088 12.103 -38.1766 32.9568 6.46199 16.4657 31.5286 -3.21739 52.5918 5.16794 32.7903 134.304 9.56601 4.94635 -55.9534 30.8198 -9.08961 -8.09553 -1.27267 36.5464 -11.3361 -18.7393 7.21852 2.38594 -12.2753 -32.539 -13.5053 
-161.134 79.2037 -115.091 -1.04567 -23.7131 2.0544 -21.9757 -6.36172 12.8067 8.52678 42.9063 -0.624062 20.0393 12.944 -3.65674 -37.8173 -32.2751 -11.8568 4.51195 19.4953 -1.90536 10.456 38.8979 -6.1111 3.25425 -18.7296 31.3355 7.95139e-016 0 -0 -55.1654 -30.9781 -1.28021 -44.3632 27.5908 -63.3943 -4.93272 12.065 -38.3044 33.3169 6.38435 16.0649 28.6306 -0.807449 49.0428 4.54888 30.7327 136.974 8.65206 5.56158 -54.2489 29.8646 -8.47879 -9.68582 0.452446 32.8958 -11.2555 -16.6298 8.60429 2.29906 -11.2775 -31.2741 -11.6698 
-163.576 80.262 -114.17 0.0379326 -23.1078 5.38337 -22.7334 -5.04431 12.0504 12.4319 42.4368 -4.2336 20.5098 14.5029 -4.01293 -41.6048 -34.6186 -12.6945 4.3015 18.7621 -1.49029 9.69171 37.4817 -5.05133 1.73726 -20.1575 30.4157 4.96962e-016 -1.59028e-014 -1.98785e-016 -56.2813 -30.9246 -1.59192 -43.193 29.0708 -65.808 -3.41003 11.4613 -37.7872 33.6268 6.26691 15.5842 25.3051 1.55892 45.0004 3.98121 28.402 139.903 7.17335 6.43003 -52.0904 28.8833 -8.16832 -10.9838 1.52085 29.2639 -8.91233 -14.2689 10.015 2.12608 -9.99546 -28.8594 -10.3467 
-165.841 81.5546 -113.308 1.08574 -22.0955 8.51762 -23.217 -4.02678 11.7829 15.8055 41.5726 -6.80728 21.1203 14.281 -4.09442 -41.9867 -34.9508 -12.3447 3.92004 17.9597 -0.947636 8.73865 35.925 -3.75639 0.22392 -20.543 29.6033 -1.19271e-015 -6.36111e-015 1.59028e-015 -57.407 -31.5159 -2.31666 -41.2906 31.241 -69.1065 -0.861143 10.4785 -36.5606 33.9056 6.14091 15.1015 21.8327 4.1599 40.6207 3.2799 25.4657 142.615 5.72533 7.22054 -49.8201 27.9301 -8.36188 -11.6957 1.47053 26.4895 -4.64591 -12.0361 10.9872 1.87476 -8.53901 -25.5372 -9.50825 
-167.918 82.9419 -112.541 2.13804 -20.8896 11.3872 -23.2242 -3.34801 11.6426 17.8467 40.957 -8.19179 21.6952 12.4193 -3.866 -39.4937 -33.5573 -11.1123 3.45398 17.1771 -0.416825 7.55272 34.4039 -2.43228 -0.963151 -19.8909 29.3004 -1.59028e-015 0 -0 -58.3967 -32.5987 -3.27337 -38.7372 33.5123 -73.0866 2.074 9.42464 -34.7772 33.9475 6.00506 14.7047 19.0012 6.98678 36.4021 2.47123 22.1391 144.583 5.00569 7.6193 -48.1235 27.0355 -9.14315 -11.5103 0.253501 25.3527 0.220194 -10.4068 11.1552 1.6227 -7.14418 -22.0919 -8.86136 
-169.791 84.2986 -111.94 3.10563 -19.7314 13.7947 -22.7615 -3.11973 11.3227 18.4642 40.9316 -8.81164 22.3921 10.18 -3.56757 -35.9761 -31.3861 -9.78379 2.94653 16.5315 0.0723758 6.21047 33.1517 -1.14833 -1.76849 -18.6378 29.6292 -8.82781e-032 3.18055e-015 1.59028e-015 -59.2109 -34.275 -4.37103 -35.9288 35.4385 -77.2284 4.5989 8.61117 -32.8426 33.4248 5.82002 14.4222 17.584 9.62995 33.0192 1.7353 19.1767 145.481 5.31587 7.52921 -47.5652 26.1846 -10.336 -10.2693 -1.58344 26.2145 3.91581 -9.68588 10.684 1.46732 -6.23273 -19.7017 -8.5633 
-171.451 85.5556 -111.552 3.82853 -18.7926 15.535 -21.9426 -3.43958 10.703 17.9939 41.4589 -8.97904 23.2414 9.02492 -3.47667 -33.1127 -29.4757 -8.9963 2.43019 16.087 0.575834 4.84867 32.2932 0.169415 -2.32463 -17.3437 30.3704 -1.59028e-015 0 1.59028e-015 -59.8698 -36.7177 -5.6527 -33.5063 36.9289 -80.849 6.31256 8.13339 -31.1007 32.1935 5.5606 14.2353 17.7542 11.441 30.9394 1.30072 17.4288 145.24 6.2988 7.11433 -47.9476 25.3525 -11.6238 -8.29251 -3.22903 28.8296 5.36731 -9.81233 10.3616 1.46211 -6.1465 -19.2719 -9.19375 
-172.935 86.7098 -111.364 4.18861 -18.1025 16.5406 -20.8786 -4.31861 9.80491 16.811 42.3019 -8.65048 24.3008 9.85603 -3.80822 -31.8642 -28.5878 -8.8954 1.86509 15.8239 1.17248 3.56726 31.7784 1.62505 -2.78033 -16.4286 31.2049 -3.18055e-015 6.36111e-015 9.54166e-015 -60.4157 -39.9113 -7.20843 -31.8713 38.1505 -83.5457 7.44334 7.86896 -29.6238 30.4375 5.26767 14.1745 19.0876 11.7943 30.2125 1.38002 17.5001 143.992 7.27256 6.67428 -48.581 24.5221 -12.756 -6.39083 -4.17432 32.4806 4.73925 -10.6161 10.8665 1.63231 -6.82993 -20.5453 -10.9173 
-174.324 87.7767 -111.297 4.19652 -17.582 16.9274 -19.6937 -5.61894 8.70333 15.1916 43.2091 -7.6912 25.7473 12.6681 -4.65602 -32.5092 -29.0299 -9.07842 1.14671 15.6759 1.89069 2.40994 31.4664 3.20989 -3.20584 -16.0723 31.9539 -1.59028e-015 0 3.18055e-015 -60.9689 -43.7341 -9.0811 -31.005 39.2863 -85.2383 8.32956 7.69052 -28.3608 28.4563 5.0243 14.3725 20.9871 10.3601 30.6088 2.09769 19.5407 141.996 7.78531 6.4269 -49.032 23.6815 -13.6185 -5.42513 -4.56381 36.3909 3.06666 -12.0784 12.1083 1.99253 -7.78462 -22.1742 -13.1669 
-175.681 88.7383 -111.242 3.98053 -17.1486 16.9434 -18.5393 -7.07072 7.52268 13.3713 44.0461 -6.16927 27.5746 16.6151 -5.92964 -34.7241 -30.6474 -8.89546 0.252566 15.5752 2.66224 1.40975 31.2358 4.75721 -3.58864 -16.2403 32.6159 0 3.18055e-015 -0 -61.7221 -48.0323 -11.2303 -30.6745 40.4228 -86.0229 9.08672 7.55466 -27.2741 26.4119 4.8913 15.0056 22.9959 7.32499 31.8682 3.42867 23.166 139.534 7.70143 6.44333 -49.2427 22.8535 -14.1858 -5.78622 -5.01467 40.0718 1.59844 -14.1313 13.4432 2.50529 -8.33503 -22.8345 -14.9906 
-177.024 89.534 -111.111 3.67716 -16.7969 16.9 -17.4909 -8.37538 6.44001 11.5442 44.8862 -4.30343 29.3518 20.3072 -7.26422 -37.622 -32.8998 -7.92531 -0.614387 15.4779 3.33096 0.631644 31.0279 6.01347 -3.86338 -16.761 33.2607 -1.59028e-015 3.18055e-015 -0 -62.7437 -52.5615 -13.5422 -30.6287 41.552 -86.1098 9.8039 7.43515 -26.2972 24.3427 4.87602 16.1736 24.8859 3.34612 33.8434 5.19179 27.6271 136.819 7.01053 6.72633 -49.2731 22.1461 -14.487 -7.23435 -6.10351 43.3481 1.246 -16.3988 14.364 3.05372 -8.18223 -22.2495 -15.6817 
